<?xml version="1.0" encoding="UTF-8" standalone="no"?><!DOCTYPE svg PUBLIC "-//W3C//DTD SVG 1.1//EN" "http://www.w3.org/Graphics/SVG/1.1/DTD/svg11.dtd"><svg width="100%" height="100%" viewBox="0 0 484 367" version="1.1" xmlns="http://www.w3.org/2000/svg" xmlns:xlink="http://www.w3.org/1999/xlink" xml:space="preserve" xmlns:serif="http://www.serif.com/" style="fill-rule:evenodd;clip-rule:evenodd;stroke-miterlimit:10;"><g><path d="M215.675,128.479l-27.534,-53.771" style="fill:none;fill-rule:nonzero;stroke:#fff;stroke-width:4.17px;"/><path d="M188.141,74.708l27.534,-53.771" style="fill:none;fill-rule:nonzero;stroke:#fff;stroke-width:4.17px;"/><path d="M215.675,345.521l-27.534,-53.117" style="fill:none;fill-rule:nonzero;stroke:#fff;stroke-width:4.17px;"/><path d="M188.141,292.404l27.534,-55.075" style="fill:none;fill-rule:nonzero;stroke:#fff;stroke-width:4.17px;"/><path d="M215.675,20.937l-140.321,0l-54.417,164.584l54.417,160l140.321,-0l24.262,-53.117l-24.262,-55.075l-56.063,-0l-31.808,-51.808l31.808,-57.042l56.063,-0l24.262,-53.771l-24.262,-53.771Z" style="fill:none;fill-rule:nonzero;stroke:#fff;stroke-width:4.17px;"/><path d="M188.141,74.708l-60.337,0l-52.45,110.813l52.45,106.883l60.337,-0" style="fill:none;fill-rule:nonzero;stroke:#fff;stroke-width:4.17px;"/><path d="M292.725,74.708l117.375,0" style="fill:none;fill-rule:nonzero;stroke:#fff;stroke-width:4.17px;"/><path d="M244.529,292.404l153.446,-0" style="fill:none;fill-rule:nonzero;stroke:#fff;stroke-width:4.17px;"/><path d="M380.262,130.116l65.725,128.192l-39.496,87.542" style="fill:none;fill-rule:nonzero;stroke:#fff;stroke-width:4.17px;"/><path d="M434.033,130.116l-23.933,-55.408" style="fill:none;fill-rule:nonzero;stroke:#fff;stroke-width:4.17px;"/><path d="M410.1,74.708l23.933,-53.771" style="fill:none;fill-rule:nonzero;stroke:#fff;stroke-width:4.17px;"/><path d="M322.554,237.329l-78.025,-162.621l24.262,-53.771l165.242,0l28.2,53.771l-28.2,55.408l-117.375,0" style="fill:none;fill-rule:nonzero;stroke:#fff;stroke-width:4.17px;"/><path d="M367.8,237.329l-99.009,-0l-24.262,55.075l24.262,53.117l138.53,-0" style="fill:none;fill-rule:nonzero;stroke:#fff;stroke-width:4.17px;"/></g></svg>